<?xml version="1.0" encoding="utf-8"?>
<!-- Generator: Adobe Illustrator 23.0.1, SVG Export Plug-In . SVG Version: 6.00 Build 0)  -->
<svg version="1.1" id="Layer_1" xmlns="http://www.w3.org/2000/svg" xmlns:xlink="http://www.w3.org/1999/xlink" x="0px" y="0px"
	 viewBox="0 0 221.1 250" style="enable-background:new 0 0 221.1 250;" xml:space="preserve">
<g id="a12">
	<path d="M221.1,193v-13l-4-7.4v25.3C218.9,196.9,220.8,195,221.1,193z"/>
</g>
<g id="a11">
	<path d="M209.2,157.7v42.4c1.3,0,2.6-0.2,4-0.6v-34.4L209.2,157.7z"/>
</g>
<g id="a10">
	<path d="M201.2,142.9v54.9c1.2,0.7,2.5,1.3,4,1.7v-49.2L201.2,142.9z"/>
</g>
<g id="a9">
	<path d="M193.2,128.1v59.3l3.4,6.7c0,0,0.2,0.3,0.6,0.7v-59.2L193.2,128.1z"/>
</g>
<g id="a8">
	<polygon points="189.2,179.4 189.2,120.6 185.2,113.2 185.2,171.5 	"/>
</g>
<g id="a7">
	<polygon points="179,164.6 181.2,163.6 181.2,105.8 177.2,98.4 177.2,165.4 	"/>
</g>
<g id="a6">
	<polygon points="169.2,137.8 169.2,168.9 173.2,167.2 173.2,91 169.2,83.6 169.2,137 	"/>
</g>
<g id="a5">
	<polygon points="165.2,76.2 161.2,68.8 161.2,122.1 165.2,129.5 	"/>
	<polygon points="165.2,139.5 161.2,141.3 161.2,172.5 165.2,170.7 	"/>
</g>
<g id="a4">
	<polygon points="157.3,61.3 153.3,53.9 153.3,107.3 157.3,114.7 	"/>
	<polygon points="157.3,143 153.3,144.8 153.3,176.1 157.3,174.3 	"/>
</g>
<g id="a3">
	<polygon points="149.3,46.5 145.3,39.1 145.3,92.4 149.3,99.8 	"/>
	<polygon points="149.3,146.6 145.3,148.3 145.3,179.6 149.3,177.8 	"/>
</g>
<g id="a2">
	<polygon points="141.3,150.1 137.3,151.8 137.3,183.2 141.3,181.4 	"/>
	<polygon points="141.3,31.7 137.3,24.3 137.3,77.5 141.3,85 	"/>
</g>
<g id="a1">
	<path d="M133.3,16.9l-4-7.4l0,0v53.2l4,7.4V16.9L133.3,16.9z"/>
	<polygon points="133.3,153.6 129.3,155.3 129.3,186.7 133.3,184.9 	"/>
</g>
<g id="a0">
	<path d="M117.2,0h-10.8C101,0,96.2,3.8,93.9,9.4l-92,171.7c0,0-6.3,12.3,4,18s17.6-0.5,20.2-5.3C28.7,189,42,164,42,164l55,24.3
		v46.5v0.8c0.1,3.1,1.2,14.3,13.7,14.3c13.5,0,14.1-13.5,14.1-13.5V3.9C123.1,1.3,120.3,0,117.2,0z M97.1,157l-44.2-19.5l44.2-82.3
		V157z"/>
</g>
</svg>
