<svg xmlns="http://www.w3.org/2000/svg" viewBox="0 0 128 128"><path d="M64.041,2.207A62.961,62.961,0,0,0,44.146,124.9c3.148.577,4.3-1.366,4.3-3.035,0-1.494-.054-5.454-.085-10.707-17.512,3.8-21.207-8.439-21.207-8.439-2.863-7.273-6.99-9.209-6.99-9.209-5.716-3.906.432-3.827.432-3.827,6.318.445,9.643,6.488,9.643,6.488,5.616,9.621,14.734,6.843,18.322,5.231.572-4.068,2.2-6.843,4-8.416C38.575,91.4,23.878,86,23.878,61.871a24.334,24.334,0,0,1,6.48-16.893c-.647-1.593-2.808-7.993.617-16.661,0,0,5.286-1.693,17.312,6.454a59.672,59.672,0,0,1,31.522,0c12.019-8.147,17.3-6.454,17.3-6.454,3.435,8.667,1.274,15.068.626,16.661A24.293,24.293,0,0,1,104.2,61.871c0,24.185-14.719,29.507-28.744,31.065,2.26,1.944,4.274,5.786,4.274,11.658,0,8.416-.077,15.206-.077,17.27,0,1.683,1.134,3.642,4.329,3.027A62.964,62.964,0,0,0,64.041,2.207Z"></path></svg>