<?xml version="1.0" encoding="utf-8"?>
<!-- Generator: Adobe Illustrator 23.0.1, SVG Export Plug-In . SVG Version: 6.00 Build 0)  -->
<svg version="1.1" id="Layer_1" xmlns="http://www.w3.org/2000/svg" xmlns:xlink="http://www.w3.org/1999/xlink" x="0px" y="0px"
	 viewBox="0 0 128 128" style="enable-background:new 0 0 128 128;" xml:space="preserve">
<path d="M60.7,125.9c-14.2-0.2-29.5-6.6-41.7-19.9C7.4,93.5,2,78.6,2.6,61.6c0.6-17.2,7.3-31.8,19.9-43.5
	C34.9,6.6,49.7,1.2,66.5,1.8c17,0.6,31.5,7.4,43.1,20c11.4,12.5,16.7,27.4,16.2,44.3C124.8,97.7,99.1,125.7,60.7,125.9z M67.7,81.7
	c-0.4-3,0.4-5.6,2.5-7.7c3-2.9,6.2-5.9,9.4-8.6c2.9-2.5,5.3-5.3,7-8.6c2.1-4,2.7-8.5,2.2-13c-0.6-5.7-3-10.2-7.9-13.4
	c-4-2.6-8.5-3.7-13-4c-6.6-0.4-13,0.6-18.3,4.9c-3.7,3-6.1,6.8-5.2,11.9c0.6,3,3.5,6.4,7.8,5.1c2.6-0.8,4-2.7,4-5.5
	c0-1.2-0.1-2.3,0-3.4c0.4-3.5,1.5-5.4,4.8-6.1c1.2-0.3,2.7-0.4,4.1-0.4c3.2,0,5.9,2,6.8,4.9c0.8,2.9,1,5.9,0.8,8.9
	c-0.3,4-0.8,7.9-2.8,11.5c-2.2,4.1-4.7,7.9-7,11.9c-2.1,3.7-2.7,7.5-2.3,11.8C62.9,81.7,65.1,81.7,67.7,81.7z M63.7,88.4
	c-4.9,0.6-7.9,3.4-8,8.2c0,4.8,3.4,8,8,8c4.8,0,8.1-3.5,8.1-8.1C71.7,91.6,68.3,88.9,63.7,88.4z"/>
</svg>
