<?xml version="1.0" encoding="utf-8"?>
<!-- Generator: Adobe Illustrator 23.0.1, SVG Export Plug-In . SVG Version: 6.00 Build 0)  -->
<svg version="1.1" id="Layer_1" xmlns="http://www.w3.org/2000/svg" xmlns:xlink="http://www.w3.org/1999/xlink" x="0px" y="0px"
	 viewBox="0 0 128 128" style="enable-background:new 0 0 128 128;" xml:space="preserve">
<style type="text/css">
	.st0{fill:#FFFFFF;}
</style>
<circle cx="63.6" cy="64" r="60.9"/>
<g>
	<g>
		<path class="st0" d="M70.2,84.5c1.7-2,3.3-3.9,4.7-5.6c2.7,1.3,5,2.9,7.6,3.7c2.9,0.9,5.2-0.5,6.2-3.2c1.1-2.9,0.4-5.9-2.1-7.4
			c-1.8-1.1-3.8-1.9-5.7-2.7c-7.1-2.9-10-8.3-8.4-15.6c1.5-6.7,7.6-11,14.6-10.4c4.3,0.4,8.2,1.8,11.6,5.2c-1.7,2.1-3.3,4-4.9,6
			c-1.4-1-2.6-2-3.9-2.7c-3.4-1.7-6.8-0.7-8.2,2.3c-1.5,3.2-0.3,5.9,3.4,7.6c1.8,0.8,3.7,1.5,5.6,2.4c6,2.9,8.4,7.8,7.4,15.1
			c-0.8,5.8-5,10.1-10.9,11.2C81.1,91.5,74.5,89.3,70.2,84.5z"/>
		<path class="st0" d="M44.9,109.3c0.2-2.7,0.4-5.4,0.7-8.1c6.3-0.7,7.6-2.2,7.6-8.5c0.1-14.9,0.1-29.8,0-44.7
			c0-2.7,0.8-3.4,3.4-3.3c6.3,0.1,6.3,0,6.3,6.5c0,14.1,0,28.3,0,42.4c0,1.6,0,3.3-0.2,4.9C61.5,107.3,53.6,112.3,44.9,109.3z"/>
		<path class="st0" d="M42.2,83.5c0,3.8-2.4,6.4-5.9,6.4c-3.4,0-5.8-2.6-5.8-6.2c0-3.8,2.3-6.5,5.8-6.5
			C39.9,77.2,42.2,79.7,42.2,83.5z"/>
	</g>
	<path class="st0" d="M58.1,37.9c-3.3,0-5.7-2.3-5.7-5.8c-0.1-3.6,2.3-6.3,5.6-6.4c3.3,0,5.6,2.4,5.7,5.9
		C63.7,35.4,61.5,37.8,58.1,37.9z"/>
</g>
</svg>
